<?xml version="1.0" encoding="UTF-8"?>
<svg id="Layer_1" data-name="Layer 1" xmlns="http://www.w3.org/2000/svg" version="1.1" viewBox="0 0 600 600">
  <defs>
    <style>
      .cls-1 {
        stroke-width: 10px;
      }

      .cls-1, .cls-2, .cls-3 {
        fill: none;
        stroke: #fff;
        stroke-miterlimit: 10;
      }

      .cls-4 {
        fill: #fff;
        stroke-width: 0px;
      }

      .cls-2, .cls-3 {
        stroke-width: 15px;
      }

      .cls-3 {
        stroke-linecap: round;
      }
    </style>
  </defs>
  <path class="cls-2" d="M330.17,275.27c89.17-5.42,156.37,37.74,168.19,104.67,8.25,46.74-28.36,94.15-64.97,116.94-53.05,33.03-109.07,16.22-119.83,12.99-11.95-3.58-66.15-19.85-85.18-64.97-11.75-27.86-4.85-54.31-15.88-57.75-13.75-4.28-29.36,35.26-44.75,31.76-18.89-4.29-24.74-70.46-10.11-76.52,10.5-4.34,49.85,22.1,51.85,19.1,12.07-18.11,51-82,120.67-86.23Z"/>
  <path class="cls-3" d="M533,391.48c-15.95,4.23-26.56,10.25-25.99,14.44.54,3.95,11.1,6.68,24.54,7.22"/>
  <path class="cls-4" d="M359.48,244.9c-2.16-46.88-1.78-93.78-.71-140.67.14-6.69.36-13.37.56-20.06,0,0,.06,1.75.06,1.75-.11.09,0,.05-.28-.3-.31-.48-.63-.86-1.08-1.33-4.38-4.33-10.42-7.19-16.56-9.79-61.31-23.15-151.96-24.32-202.5,22.73-5.55,5.13-10.47,11.01-14.93,17.12-32.58,43.94-55.26,96.95-55.29,152.32-.06,21.01,2.95,42.12,8.99,62.43.16.53-.14,1.09-.67,1.24-.51.15-1.05-.13-1.23-.63-22.61-61.24-12.98-130.72,17.19-187.76,6.19-12.03,13.19-23.65,20.81-34.84,4.66-6.92,9.82-13.64,15.76-19.5,7.92-7.96,16.93-14.8,26.55-20.55,47.76-27.35,107.74-31.57,161.08-21.52,16.7,3.62,33.58,8.49,48.16,18.61,6.13,4.33,12.64,11.24,13.49,19.32,0,0,.13.85.13.85,0,0-.07.89-.07.89-1.03,13.34-2.13,26.67-3.35,40-3.68,40.04-7.92,80.02-14.12,119.77-.09.55-.61.92-1.15.83-.48-.08-.82-.48-.84-.94h0Z"/>
  <path class="cls-1" d="M374.37,325.23c-23.29-2.45-50.47,15.04-56.3,43.31-5.44,26.36,9.56,53.11,34.65,62.08,24.92,8.91,52.29-2.39,63.52-21.66,17.98-30.85-6.65-80.02-41.87-83.73Z"/>
  <path class="cls-1" d="M372.71,359.9c-2.21-.25-4.79,1.54-5.34,4.45-.52,2.71.91,5.45,3.29,6.37,2.37.91,4.96-.25,6.03-2.22,1.71-3.17-.63-8.22-3.97-8.6Z"/>
</svg>